PathFileType	4	(X/Y/Z)	/home/nbianco/projects/addbio/data/HamnerRunning2013/Processed/subject08//results/MarkerData/run200.trc
DataRate	CameraRate	NumFrames	NumMarkers	Units	OrigDataRate	OrigDataStartFrame	OrigNumFrames
100	100	9	42	m	100	134	215
Frame#	Time	C7			CLAV			LACR			LASI			LCAL			LFAradius			LFAsuperior			LFAulna			LLEL			LMEL			LMT5			LPSI			LTB1			LTB2			LTB3			LTH1			LTH2			LTH3			LTOE			LUA1			LUA2			LUA3			RACR			RASI			RCAL			RFAradius			RFAsuperior			RFAulna			RLEL			RMEL			RMT5			RPSI			RTB1			RTB2			RTB3			RTH1			RTH2			RTH3			RTOE			RUA1			RUA2			RUA3		
		X1	Y1	Z1	X2	Y2	Z2	X3	Y3	Z3	X4	Y4	Z4	X5	Y5	Z5	X6	Y6	Z6	X7	Y7	Z7	X8	Y8	Z8	X9	Y9	Z9	X10	Y10	Z10	X11	Y11	Z11	X12	Y12	Z12	X13	Y13	Z13	X14	Y14	Z14	X15	Y15	Z15	X16	Y16	Z16	X17	Y17	Z17	X18	Y18	Z18	X19	Y19	Z19	X20	Y20	Z20	X21	Y21	Z21	X22	Y22	Z22	X23	Y23	Z23	X24	Y24	Z24	X25	Y25	Z25	X26	Y26	Z26	X27	Y27	Z27	X28	Y28	Z28	X29	Y29	Z29	X30	Y30	Z30	X31	Y31	Z31	X32	Y32	Z32	X33	Y33	Z33	X34	Y34	Z34	X35	Y35	Z35	X36	Y36	Z36	X37	Y37	Z37	X38	Y38	Z38	X39	Y39	Z39	X40	Y40	Z40	X41	Y41	Z41	X42	Y42	Z42

135	2.15	0.721972	1.60097	-0.50522	0.840427	1.52492	-0.433326	0.825168	1.5651	-0.633641	0.799876	1.05547	-0.606337	0.332174	0.208128	-0.55133	0.941332	1.31039	-0.583814	0.918691	1.26137	-0.730574	0.947301	1.24394	-0.583316	0.852849	1.28248	-0.835008	0.788764	1.23925	-0.813714	0.45864	0.0566512	-0.644884	0.621059	1.12277	-0.531156	0.613075	0.448994	-0.582697	0.524214	0.407517	-0.646088	0.509037	0.270865	-0.579605	0.717372	0.926058	-0.665508	0.755653	0.799136	-0.6442	0.638863	0.68539	-0.639963	0.508936	0.0681418	-0.569506	0.822709	1.47044	-0.741244	0.76306	1.39047	-0.76624	0.831205	1.36434	-0.800871	0.725924	1.57215	-0.317302	0.786856	1.05317	-0.351775	0.672416	0.138242	-0.405562	0.737296	1.20624	-0.250642	0.551888	1.27032	-0.187116	0.691968	1.15091	-0.239556	0.499655	1.33432	-0.187061	0.474303	1.31889	-0.266241	0.852084	0.0690715	-0.28882	0.614096	1.12134	-0.447244	0.867131	0.444251	-0.349134	0.794424	0.356152	-0.307067	0.814577	0.253208	-0.363648	0.75119	0.923648	-0.292436	0.844575	0.808297	-0.301968	0.800073	0.690105	-0.307771	0.900134	0.103255	-0.365155	0.626115	1.50188	-0.248655	0.546087	1.45033	-0.290279	0.549044	1.41742	-0.215484
136	2.16	0.722325	1.60525	-0.502895	0.840265	1.52991	-0.431262	0.825922	1.57045	-0.629958	0.801584	1.05865	-0.605041	0.325115	0.22063	-0.553006	0.94054	1.32063	-0.580822	0.919873	1.2695	-0.727143	0.947571	1.25402	-0.579689	0.855186	1.28843	-0.832535	0.79118	1.24505	-0.811317	0.441527	0.0598384	-0.644679	0.623523	1.12711	-0.530768	0.605499	0.454578	-0.582817	0.516567	0.414244	-0.646681	0.500507	0.277094	-0.581158	0.717926	0.930146	-0.664401	0.753661	0.802271	-0.643684	0.634701	0.690767	-0.639291	0.492575	0.0690522	-0.569589	0.824721	1.47683	-0.738206	0.76521	1.39711	-0.764277	0.833267	1.37021	-0.797916	0.725455	1.5762	-0.315563	0.788102	1.05718	-0.350678	0.698464	0.127092	-0.400642	0.735121	1.21266	-0.246344	0.548755	1.27706	-0.185384	0.689067	1.15689	-0.235837	0.496726	1.34117	-0.186116	0.472207	1.3251	-0.265805	0.883355	0.0684372	-0.286175	0.615924	1.12576	-0.446772	0.869826	0.446569	-0.347076	0.80384	0.353875	-0.304116	0.831831	0.251891	-0.359494	0.750098	0.926945	-0.290888	0.840599	0.809341	-0.300353	0.793056	0.691361	-0.307587	0.92799	0.107258	-0.361917	0.625222	1.50765	-0.24761	0.545382	1.45606	-0.290077	0.546956	1.42402	-0.214504
137	2.17	0.722513	1.60858	-0.500326	0.840074	1.53396	-0.429339	0.826302	1.57491	-0.626459	0.803392	1.06093	-0.603789	0.318312	0.232976	-0.554927	0.939319	1.32916	-0.578017	0.920425	1.27639	-0.724021	0.947584	1.26237	-0.576781	0.856802	1.29351	-0.830163	0.792939	1.24998	-0.809127	0.424907	0.0638795	-0.644706	0.625999	1.13068	-0.530312	0.599385	0.459028	-0.582869	0.510353	0.420161	-0.647288	0.492416	0.282838	-0.582518	0.71894	0.933617	-0.663235	0.752549	0.804826	-0.643065	0.63204	0.695103	-0.638619	0.476825	0.0704929	-0.570022	0.826058	1.48222	-0.735084	0.766755	1.40261	-0.76205	0.834627	1.37531	-0.795218	0.725197	1.57919	-0.313621	0.789448	1.0603	-0.349626	0.722808	0.118654	-0.395991	0.733406	1.21791	-0.242283	0.546173	1.2824	-0.183754	0.687064	1.16183	-0.232211	0.494513	1.3464	-0.185376	0.470555	1.32979	-0.265449	0.911605	0.0688332	-0.283597	0.617767	1.1293	-0.446263	0.87203	0.448593	-0.345432	0.812557	0.352258	-0.301352	0.847607	0.251559	-0.355382	0.748944	0.929144	-0.289199	0.836268	0.809176	-0.298669	0.785782	0.691575	-0.307607	0.95303	0.112092	-0.358508	0.624177	1.51228	-0.246279	0.5449	1.46043	-0.289735	0.545076	1.42935	-0.2135
138	2.18	0.722522	1.61082	-0.497526	0.839839	1.53683	-0.427239	0.82635	1.57841	-0.62324	0.805105	1.06231	-0.602507	0.3115	0.244825	-0.556957	0.937775	1.33574	-0.575396	0.920446	1.28183	-0.721252	0.947195	1.26891	-0.57393	0.857694	1.29762	-0.827941	0.793952	1.25397	-0.807051	0.40884	0.0686912	-0.644962	0.628334	1.13335	-0.529717	0.594827	0.462163	-0.582914	0.505503	0.425184	-0.647853	0.484796	0.287968	-0.583706	0.720533	0.936272	-0.661938	0.752611	0.806665	-0.642057	0.631167	0.698142	-0.638019	0.461588	0.0725787	-0.570747	0.826797	1.48644	-0.731972	0.767602	1.40679	-0.759494	0.835278	1.37965	-0.792912	0.725144	1.58097	-0.31148	0.790697	1.06252	-0.348544	0.744417	0.113078	-0.39184	0.732306	1.22178	-0.238211	0.544139	1.28617	-0.182212	0.685961	1.16561	-0.228736	0.492842	1.34965	-0.184926	0.469414	1.3328	-0.265126	0.935601	0.0701201	-0.280559	0.619496	1.13189	-0.445648	0.873906	0.450406	-0.344346	0.820438	0.351355	-0.298858	0.861508	0.252094	-0.351555	0.747942	0.930149	-0.287821	0.831904	0.807949	-0.297164	0.779128	0.690946	-0.307687	0.974602	0.116729	-0.3548	0.622926	1.51556	-0.24465	0.544609	1.46341	-0.289191	0.543416	1.43313	-0.212601
139	2.19	0.722358	1.61191	-0.494554	0.839621	1.53835	-0.424771	0.826111	1.58083	-0.620224	0.806603	1.06273	-0.601055	0.304741	0.256065	-0.558884	0.936001	1.34021	-0.572936	0.919977	1.28567	-0.718832	0.946443	1.27342	-0.571193	0.857831	1.3006	-0.825884	0.794139	1.25693	-0.805012	0.39327	0.0740503	-0.64536	0.630377	1.13504	-0.528929	0.591872	0.46388	-0.582979	0.502059	0.429187	-0.648347	0.477755	0.292387	-0.584711	0.722718	0.93789	-0.660479	0.753985	0.807634	-0.640448	0.632192	0.699671	-0.63753	0.44668	0.0753475	-0.571627	0.826965	1.48937	-0.728978	0.767674	1.40959	-0.756651	0.8352	1.3831	-0.790922	0.725248	1.58149	-0.309115	0.791729	1.06378	-0.347293	0.762316	0.110001	-0.388208	0.731948	1.22416	-0.234165	0.542635	1.28818	-0.180733	0.685647	1.16796	-0.225502	0.491452	1.3509	-0.184612	0.468857	1.33405	-0.264736	0.954569	0.0720184	-0.276831	0.621015	1.13347	-0.444858	0.875574	0.451979	-0.343771	0.827274	0.351011	-0.296749	0.873184	0.253151	-0.348308	0.747005	0.92996	-0.286707	0.827947	0.80585	-0.295773	0.773967	0.689657	-0.307604	0.992222	0.120031	-0.351041	0.621693	1.51722	-0.242808	0.544516	1.46485	-0.28846	0.542064	1.43509	-0.211819
140	2.2	0.722053	1.61185	-0.491495	0.839512	1.53854	-0.422038	0.825649	1.58207	-0.617282	0.807807	1.06206	-0.599282	0.298296	0.266844	-0.560547	0.934099	1.34245	-0.570612	0.919007	1.28781	-0.716713	0.945388	1.2757	-0.568868	0.85718	1.30238	-0.823954	0.79348	1.25881	-0.802996	0.378131	0.0797775	-0.645783	0.63203	1.13567	-0.527917	0.590487	0.464174	-0.583011	0.500132	0.43205	-0.648772	0.471357	0.296123	-0.585474	0.725425	0.938289	-0.658887	0.7566	0.807614	-0.638164	0.634989	0.699589	-0.637078	0.431932	0.0787936	-0.572473	0.826519	1.49096	-0.726147	0.766956	1.41103	-0.753675	0.834381	1.38547	-0.789057	0.725413	1.58086	-0.306495	0.792471	1.06395	-0.345718	0.775813	0.108469	-0.385121	0.732343	1.22506	-0.230258	0.541727	1.28832	-0.179314	0.686119	1.16875	-0.222595	0.490257	1.35034	-0.184097	0.468894	1.33349	-0.264167	0.968294	0.0737453	-0.272834	0.622266	1.13398	-0.443826	0.877133	0.453055	-0.343518	0.832822	0.350802	-0.29516	0.882331	0.254132	-0.345915	0.745718	0.928714	-0.285145	0.824821	0.803104	-0.293942	0.770872	0.687834	-0.307152	1.00555	0.121279	-0.347683	0.620797	1.51714	-0.240773	0.544635	1.46453	-0.28754	0.541126	1.43511	-0.211019
141	2.21	0.721649	1.61071	-0.488404	0.83954	1.53749	-0.41929	0.825047	1.58213	-0.614399	0.808662	1.06016	-0.597137	0.292348	0.277391	-0.56196	0.932172	1.34238	-0.568413	0.917513	1.28816	-0.714843	0.943985	1.27568	-0.566951	0.855737	1.30293	-0.822099	0.791993	1.25957	-0.801045	0.363569	0.085917	-0.646194	0.633259	1.13515	-0.526674	0.590538	0.463121	-0.582877	0.499772	0.433758	-0.649131	0.465582	0.299325	-0.585917	0.728544	0.937385	-0.657222	0.76022	0.806569	-0.635288	0.639278	0.697923	-0.636501	0.417384	0.0829278	-0.573126	0.825411	1.49124	-0.723472	0.765518	1.41122	-0.750738	0.832858	1.38654	-0.787165	0.725547	1.57917	-0.303621	0.792869	1.06288	-0.34377	0.784717	0.107326	-0.382694	0.733402	1.22437	-0.226601	0.541559	1.28649	-0.177954	0.68748	1.16793	-0.22006	0.489449	1.34807	-0.183152	0.46948	1.33108	-0.263357	0.97712	0.0738893	-0.269614	0.623235	1.13333	-0.442516	0.878617	0.453188	-0.34333	0.836924	0.35015	-0.294099	0.88876	0.254325	-0.344393	0.743772	0.926652	-0.282308	0.822765	0.799986	-0.29093	0.769848	0.685518	-0.306269	1.01444	0.120307	-0.34522	0.620418	1.51536	-0.238429	0.544933	1.46235	-0.286346	0.540642	1.43316	-0.21001
142	2.22	0.721188	1.60858	-0.485277	0.839633	1.53531	-0.416677	0.824362	1.58104	-0.611664	0.809202	1.05694	-0.594796	0.286894	0.287794	-0.563308	0.930297	1.33998	-0.56635	0.915489	1.2867	-0.713206	0.942165	1.27338	-0.565233	0.853533	1.3023	-0.820313	0.789694	1.25924	-0.799213	0.350034	0.0926799	-0.646684	0.634091	1.13339	-0.525227	0.591848	0.460834	-0.582429	0.500878	0.434477	-0.649389	0.460427	0.302174	-0.586037	0.731954	0.93521	-0.655531	0.764544	0.804538	-0.63201	0.64475	0.694787	-0.63565	0.403401	0.0877933	-0.57353	0.823679	1.49027	-0.720959	0.763489	1.41028	-0.747945	0.830705	1.38624	-0.785211	0.725605	1.57637	-0.300556	0.79295	1.06051	-0.341628	0.789313	0.105949	-0.381042	0.735022	1.22196	-0.223363	0.542206	1.28264	-0.176595	0.689689	1.16542	-0.217895	0.489333	1.34398	-0.181828	0.47058	1.32681	-0.262311	0.981648	0.0710557	-0.268282	0.623941	1.13143	-0.440974	0.87995	0.45195	-0.342964	0.83959	0.348557	-0.293319	0.892528	0.253146	-0.343415	0.741436	0.924024	-0.27807	0.821712	0.796765	-0.286487	0.770321	0.682707	-0.305071	1.01906	0.117045	-0.344178	0.620507	1.51204	-0.235602	0.545331	1.45836	-0.284758	0.540584	1.4293	-0.208653
143	2.23	0.720681	1.60552	-0.482079	0.839656	1.53203	-0.414189	0.823588	1.57887	-0.609144	0.809642	1.0525	-0.592606	0.28189	0.297959	-0.564791	0.928498	1.3353	-0.564464	0.912941	1.28346	-0.711836	0.940015	1.26883	-0.563869	0.850598	1.30057	-0.818629	0.786585	1.25788	-0.797528	0.338057	0.100136	-0.647395	0.634601	1.13034	-0.523668	0.594307	0.457412	-0.581634	0.503249	0.434497	-0.649475	0.45601	0.304789	-0.585936	0.735529	0.931859	-0.653845	0.76932	0.80158	-0.628577	0.651168	0.690307	-0.634494	0.39056	0.0934027	-0.573775	0.821471	1.4882	-0.718666	0.761	1.40833	-0.745308	0.828007	1.38464	-0.783237	0.725594	1.57238	-0.297403	0.792917	1.05691	-0.339644	0.789913	0.104579	-0.380227	0.737162	1.21769	-0.220728	0.543612	1.27678	-0.175124	0.69246	1.16098	-0.216054	0.490091	1.33787	-0.180282	0.472194	1.32067	-0.261043	0.982117	0.0651053	-0.269236	0.62443	1.12818	-0.439342	0.880973	0.449112	-0.3423	0.84095	0.345745	-0.292493	0.893836	0.250307	-0.342628	0.739509	0.92094	-0.273357	0.821389	0.793546	-0.281283	0.771457	0.679412	-0.303757	1.01965	0.111135	-0.345053	0.620859	1.50726	-0.232256	0.545759	1.45271	-0.282701	0.540921	1.4236	-0.20689
